<svg xmlns="http://www.w3.org/2000/svg" viewBox="0 0 200 200" width="200" height="200">
  <defs>
    <radialGradient id="sparkle">
      <stop offset="0%" stop-color="#FFFFFF" stop-opacity="1"/>
      <stop offset="100%" stop-color="#90CAF9" stop-opacity="0.8"/>
    </radialGradient>
  </defs>
  <g>
    <circle cx="100" cy="100" r="60" fill="url(#sparkle)" opacity="0.3"/>
    <path d="M100,40 L105,95 L100,100 L95,95 Z" fill="#90CAF9"/>
    <path d="M100,160 L95,105 L100,100 L105,105 Z" fill="#90CAF9"/>
    <path d="M40,100 L95,105 L100,100 L95,95 Z" fill="#90CAF9"/>
    <path d="M160,100 L105,95 L100,100 L105,105 Z" fill="#90CAF9"/>
    <path d="M55,55 L95,95 L100,100 L100,95 Z" fill="#90CAF9"/>
    <path d="M145,145 L105,105 L100,100 L100,105 Z" fill="#90CAF9"/>
    <path d="M145,55 L105,95 L100,100 L105,100 Z" fill="#90CAF9"/>
    <path d="M55,145 L95,105 L100,100 L95,100 Z" fill="#90CAF9"/>
    <circle cx="100" cy="100" r="10" fill="#FFFFFF"/>
  </g>
</svg>

