<svg xmlns="http://www.w3.org/2000/svg" viewBox="0 0 200 180" width="200" height="180">
  <g>
    <!-- Left bell -->
    <path d="M60,50 Q60,30 75,30 Q90,30 90,50 L90,90 Q90,110 75,110 Q60,110 60,90 Z" fill="#FFD54F" stroke="#FFC107" stroke-width="2"/>
    <circle cx="75" cy="115" r="5" fill="#FFC107"/>
    <rect x="70" y="25" width="10" height="10" rx="2" fill="#FFC107"/>
    <!-- Right bell -->
    <path d="M110,60 Q110,40 125,40 Q140,40 140,60 L140,100 Q140,120 125,120 Q110,120 110,100 Z" fill="#FFD54F" stroke="#FFC107" stroke-width="2"/>
    <circle cx="125" cy="125" r="5" fill="#FFC107"/>
    <rect x="120" y="35" width="10" height="10" rx="2" fill="#FFC107"/>
    <!-- Ribbon -->
    <path d="M75,25 Q100,10 125,35" fill="none" stroke="#EF5350" stroke-width="4" stroke-linecap="round"/>
    <circle cx="100" cy="15" r="8" fill="#EF5350"/>
  </g>
</svg>

